<?xml version="1.0" encoding="UTF-8" standalone="no"?>

<!-- 
   Title: SVG file for the full 5T's of ACLS NFT
   Author: Tyee Fellows MD
   Published date: June 15, 2022 
-->

<svg
   width="247"
   height="320"
   viewBox="0 0 247 320"
   version="1.1"
   id="svg5"
   xmlns="http://www.w3.org/2000/svg"
   xmlns:svg="http://www.w3.org/2000/svg">
  <defs
     id="defs2">
    <filter
       style="color-interpolation-filters:sRGB"
       id="filter11021"
       x="-0.0099924402"
       y="-0.077092074"
       width="1.0199848"
       height="1.1541841">
      <feGaussianBlur
         stdDeviation="0.31698478"
         id="feGaussianBlur11023" />
    </filter>
    <filter
       style="color-interpolation-filters:sRGB"
       id="filter3208"
       x="-0.020643368"
       y="-0.018046314"
       width="1.0412867"
       height="1.0360926">
      <feGaussianBlur
         stdDeviation="0.65406603"
         id="feGaussianBlur3210" />
    </filter>
  </defs>
  <g
     id="layer1"
     transform="matrix(1.3482479,0,0,1.3482479,-59.446515,-52.521916)">
    <g
       id="g53483"
       transform="matrix(1.4379792,0,0,1.4346892,-19.312791,-25.611502)"
       style="display:inline">
      <g
         id="g3206"
         style="opacity:0.4;filter:url(#filter3208)"
         transform="translate(1.4834067,1.4834067)">
        <path
           id="path3186"
           style="display:inline;fill:#000000;stroke-width:0"
           d="m 103.24222,162.04979 a 2.1328538,2.1328538 0 0 1 -2.13285,2.13284 2.1328538,2.1328538 0 0 1 -2.132853,-2.13284 2.1328538,2.1328538 0 0 1 2.132853,-2.13286 2.1328538,2.1328538 0 0 1 2.13285,2.13286 z"
           transform="translate(-3.9765267,-2.7448155)" />
        <path
           id="path3188"
           style="color:#000000;display:inline;fill:#000000;stroke-linecap:round;stroke-linejoin:round"
           d="m 125.90194,177.08777 c -0.47746,0.007 -0.80497,0.27207 -1.0332,0.52929 -0.22857,0.25761 -0.38699,0.54957 -0.49609,0.85547 -0.73531,2.06161 -0.69384,5.12642 -0.5293,7.75977 0.16454,2.63334 0.49414,4.80468 0.49414,4.80468 a 0.72323234,0.72323234 0 0 0 0.60742,0.60743 c 0,0 0.44195,0.0655 0.97852,0.21093 0.53657,0.14541 1.16064,0.40596 1.38086,0.59375 0.31028,0.26461 0.62487,0.83229 0.94531,1.49219 0.32044,0.65991 0.64554,1.40443 1.24609,1.98828 0.5093,0.49515 1.19172,0.83938 1.77344,1.11133 0.58172,0.27195 1.06641,0.44922 1.06641,0.44922 a 0.72323234,0.72323234 0 0 0 0.96875,-0.68164 v -6.48242 c 0,-2.15942 -0.53937,-4.43941 -1.61719,-6.11524 -0.0183,-0.0319 -1.78989,-3.12516 -2.95898,-4.58984 -0.29167,-0.36542 -0.62615,-0.93488 -1.03321,-1.45313 -0.40671,-0.51781 -0.95921,-1.0914 -1.79101,-1.08007 z m 0.0215,1.44726 c 0.0894,-0.001 0.31817,0.12481 0.63281,0.52539 0.31464,0.40058 0.64488,0.96659 1.04102,1.46289 0.98615,1.23549 2.85351,4.43555 2.85351,4.43555 a 0.72323234,0.72323234 0 0 0 0.0176,0.0293 c 0.86635,1.34475 1.39062,3.42866 1.39062,5.33789 v 5.39257 c -0.51356,-0.24237 -1.109,-0.58845 -1.35351,-0.82617 -0.31789,-0.30905 -0.62986,-0.91228 -0.95508,-1.58203 -0.32522,-0.66975 -0.66398,-1.41317 -1.30859,-1.96289 -0.57893,-0.4937 -1.31601,-0.71777 -1.93946,-0.88672 -0.31856,-0.0863 -0.37537,-0.0846 -0.58398,-0.125 -0.0548,-0.37657 -0.28613,-1.89576 -0.42969,-4.19336 -0.16014,-2.56295 -0.11811,-5.6039 0.44531,-7.18359 0.0512,-0.14363 0.14485,-0.30172 0.2168,-0.38281 0.072,-0.0811 0.0928,-0.0427 -0.0273,-0.041 z m -6.42775,-1.44531 c -0.83177,-0.0113 -1.38428,0.56232 -1.79101,1.08008 -0.40708,0.51819 -0.73958,1.08777 -1.03125,1.45312 -1.16764,1.46262 -2.9342,4.54417 -2.95703,4.58399 -1.07999,1.67608 -1.6211,3.95784 -1.6211,6.11914 v 6.48242 a 0.72323234,0.72323234 0 0 0 0.96875,0.68164 c 0,0 0.48467,-0.17535 1.06641,-0.44727 0.58173,-0.27191 1.26412,-0.6182 1.77344,-1.11328 0.60059,-0.58378 0.92563,-1.32846 1.24609,-1.98828 0.32046,-0.65982 0.63696,-1.2276 0.94727,-1.49219 0.2202,-0.18776 0.84231,-0.4464 1.3789,-0.59179 0.5366,-0.14539 0.97852,-0.21289 0.97852,-0.21289 a 0.72323234,0.72323234 0 0 0 0.60742,-0.60547 c 0,0 0.32959,-2.17167 0.49414,-4.80469 0.16455,-2.63302 0.20801,-5.69837 -0.52734,-7.75977 -0.10912,-0.30588 -0.26752,-0.59788 -0.4961,-0.85546 -0.22823,-0.2572 -0.55773,-0.52187 -1.03515,-0.5293 z m -0.0195,1.44726 c -0.12007,-0.002 -0.0973,-0.0381 -0.0254,0.043 0.072,0.0811 0.16362,0.23726 0.21485,0.38086 0.56341,1.57943 0.60741,4.62098 0.44726,7.1836 -0.14343,2.29508 -0.37451,3.81028 -0.42969,4.18945 -0.20878,0.0404 -0.26613,0.0403 -0.58593,0.12695 -0.62346,0.16893 -1.36051,0.39503 -1.93946,0.88867 -0.64463,0.54967 -0.98335,1.29128 -1.30859,1.96094 -0.32524,0.66966 -0.63717,1.27302 -0.95508,1.58203 -0.24453,0.23769 -0.83994,0.58383 -1.35351,0.82617 v -5.39257 c 0,-1.90893 0.52426,-3.99139 1.39062,-5.33594 a 0.72323234,0.72323234 0 0 0 0.0176,-0.0293 c 0,0 1.86733,-3.20023 2.85351,-4.43554 0.39618,-0.49626 0.72638,-1.06237 1.04102,-1.4629 0.31464,-0.40052 0.54328,-0.52671 0.63281,-0.52539 z"
           transform="translate(-3.9765267,-2.7448155)" />
        <path
           id="path3190"
           style="display:inline;fill:#000000;stroke-width:0.0808789"
           d="m 62.064633,78.694356 v 93.404184 h 9.590354 v -38.99713 l 23.397437,-0.58178 22.710736,29.53466 -28.134932,35.5908 9.688154,0.0125 23.383218,-29.78501 23.13413,29.75993 9.68815,0.0121 -27.87622,-35.58704 28.24276,-35.60209 -9.68815,-0.0121 -23.44842,29.79923 -20.54825,-27.02737 c 0,0 2.90577,-1.01914 8.20316,-8.77785 3.21904,-4.71469 4.85723,-13.52592 4.83822,-17.786 -0.0206,-4.621641 -0.44638,-10.647182 -7.07928,-16.562233 -1.27723,-1.138989 -3.38007,-2.962028 -6.7374,-4.630086 -2.926853,-1.454179 -7.000679,-2.65379 -11.33698,-2.668631 z m 17.069626,8.448088 c 0.770252,-0.003 1.549164,-0.0021 2.310028,0.005 0.760863,0.0071 1.503528,0.02027 2.200523,0.04096 0.696995,0.02069 1.348536,0.0491 1.927182,0.08693 0.438264,0.02866 0.879494,0.05087 1.322403,0.07022 0.442911,0.01934 0.887347,0.03588 1.332435,0.0535 0.445089,0.01761 0.89098,0.03628 1.335779,0.05977 0.444799,0.02349 0.888721,0.05166 1.330762,0.08861 0.442042,0.03695 0.881827,0.08243 1.318643,0.140432 0.218408,0.029 0.436204,0.06128 0.652843,0.09697 0.216639,0.03568 0.432429,0.07496 0.646991,0.11828 0.214562,0.04332 0.427711,0.09062 0.639887,0.142522 0.212176,0.05191 0.423299,0.108251 0.632781,0.169689 0.209481,0.06144 0.417525,0.127862 0.624001,0.199782 0.206484,0.07192 0.411229,0.149448 0.614396,0.2328 0.35311,0.144868 0.705871,0.300154 1.055745,0.466017 0.349882,0.165864 0.696957,0.342094 1.039455,0.529129 0.342498,0.187036 0.680458,0.384689 1.011447,0.593075 0.165486,0.104194 0.329258,0.211424 0.491089,0.320988 0.161838,0.109565 0.321728,0.221495 0.479391,0.336453 0.15767,0.114959 0.31304,0.232796 0.46603,0.35317 0.15297,0.120375 0.30361,0.24324 0.45138,0.369053 0.14777,0.125813 0.29263,0.254497 0.43467,0.385771 0.14204,0.131274 0.2809,0.265314 0.4167,0.402071 0.1358,0.136757 0.26843,0.276108 0.39747,0.418371 0.12905,0.142263 0.2548,0.287299 0.37658,0.435089 0.12177,0.14779 0.23961,0.298467 0.35358,0.451808 0.11398,0.15334 0.2241,0.309612 0.32977,0.468525 0.11313,0.17014 0.2215,0.343059 0.32516,0.519098 0.10367,0.176038 0.20263,0.355217 0.29717,0.536652 0.0945,0.181435 0.18465,0.365368 0.27042,0.551698 0.0858,0.18633 0.16718,0.374768 0.2445,0.565491 0.0773,0.190722 0.15019,0.383833 0.21942,0.578447 0.0692,0.194614 0.13453,0.390893 0.19603,0.588896 0.0615,0.198003 0.11935,0.397618 0.17344,0.598509 0.0541,0.200891 0.10468,0.403173 0.15172,0.60645 0.0471,0.203276 0.0905,0.407554 0.13082,0.612714 0.0404,0.20516 0.0776,0.411203 0.11159,0.617743 0.0679,0.413083 0.12346,0.828223 0.16802,1.243833 0.0446,0.4156 0.0781,0.83139 0.10198,1.2455 0.0239,0.4141 0.0382,0.82645 0.0443,1.23505 0.008,0.52165 0.003,1.04727 -0.0142,1.57485 -0.009,0.26379 -0.0211,0.52837 -0.0368,0.79285 -0.0157,0.26449 -0.0349,0.52904 -0.0577,0.7937 -0.0228,0.26465 -0.0493,0.52939 -0.0794,0.79369 -0.0302,0.2643 -0.0641,0.52817 -0.10198,0.7916 -0.0378,0.26343 -0.0795,0.52624 -0.12538,0.78826 -0.0459,0.26203 -0.096,0.52315 -0.15005,0.78325 -0.0541,0.2601 -0.11248,0.51932 -0.17513,0.77697 -0.0626,0.25765 -0.12955,0.51394 -0.20103,0.76862 -0.0715,0.25468 -0.14717,0.50782 -0.22779,0.759 -0.0806,0.25118 -0.16618,0.50056 -0.2562,0.74772 -0.09,0.24716 -0.18448,0.49215 -0.2842,0.73476 -0.0997,0.24261 -0.20459,0.48259 -0.31431,0.72013 -0.10971,0.23754 -0.2244,0.47231 -0.34439,0.70426 -0.12,0.23194 -0.24518,0.46128 -0.37574,0.68711 -0.0983,0.17012 -0.20047,0.33814 -0.30636,0.50447 -0.10589,0.16633 -0.21586,0.33081 -0.32893,0.49318 -0.11306,0.16238 -0.22952,0.32283 -0.3494,0.48107 -0.11988,0.15823 -0.24314,0.31419 -0.36947,0.46811 -0.12634,0.15391 -0.25544,0.30572 -0.38786,0.45515 -0.13243,0.14942 -0.2681,0.2966 -0.40625,0.44136 -0.13815,0.14475 -0.27904,0.28724 -0.42255,0.42714 -0.14352,0.13991 -0.2895,0.27723 -0.43802,0.41211 -0.148522,0.13488 -0.299474,0.26696 -0.452643,0.39663 -0.15316,0.12968 -0.308569,0.25688 -0.466016,0.38118 -0.157447,0.12429 -0.317182,0.24571 -0.47856,0.36445 -0.16137,0.11874 -0.324486,0.23473 -0.489422,0.34774 -0.164929,0.113 -0.331321,0.22309 -0.499452,0.33018 -0.168123,0.1071 -0.338106,0.21121 -0.509068,0.31221 -0.170961,0.10101 -0.343152,0.19909 -0.516589,0.29382 -0.173437,0.0947 -0.347723,0.1863 -0.523278,0.2746 -0.196447,0.0988 -0.395223,0.19181 -0.595997,0.27919 -0.200782,0.0874 -0.40382,0.16893 -0.608541,0.24576 -0.204722,0.0768 -0.41114,0.14893 -0.619409,0.21608 -0.208269,0.0671 -0.418427,0.12931 -0.629855,0.18766 -0.211427,0.0584 -0.424436,0.11258 -0.638632,0.163 -0.214196,0.0504 -0.429581,0.0971 -0.646156,0.14044 -0.433149,0.0867 -0.87038,0.16063 -1.310701,0.22444 -0.440321,0.0638 -0.883467,0.11765 -1.327837,0.16551 -0.444371,0.0478 -0.890063,0.0894 -1.335361,0.12831 -0.890595,0.0778 -1.780104,0.14498 -2.655675,0.22903 -0.291364,0.028 -0.600924,0.0524 -0.925766,0.074 -0.324841,0.0216 -0.665035,0.0402 -1.016461,0.056 -0.702854,0.0317 -1.451906,0.0525 -2.21975,0.0648 -0.767844,0.0123 -1.554477,0.0163 -2.332179,0.0142 -0.777701,-0.002 -1.546254,-0.0102 -2.278681,-0.0217 -1.464854,-0.0231 -2.784379,-0.0602 -3.737336,-0.0915 -0.952959,-0.0313 -1.539322,-0.0568 -1.539322,-0.0568 V 87.275353 c 0,0 0.580359,-0.01898 1.523439,-0.04263 0.94308,-0.02365 2.248563,-0.05214 3.698886,-0.07105 0.725161,-0.0095 1.486694,-0.01627 2.256947,-0.01922 z"
           transform="translate(-3.9765267,-2.7448155)" />
        <path
           style="color:#000000;display:inline;fill:#000000;stroke-width:1.06852;stroke-linecap:round;stroke-linejoin:round"
           d="m 118.31979,128.55508 c -1.56798,0.0115 -2.85929,1.24382 -3.59797,2.82264 -0.73868,1.57882 -0.98478,3.6026 -0.3718,5.50584 0.70676,2.19445 2.62425,4.6469 4.3803,6.7451 1.75605,2.09821 3.36171,3.73579 3.36171,3.73579 a 0.89232694,1.0363935 0 0 0 0.58869,-0.045 0.89232694,1.0363935 0 0 0 0.58869,0.045 c 0,0 1.60761,-1.63758 3.36366,-3.73579 1.75605,-2.0982 3.67159,-4.55065 4.37837,-6.7451 0.61298,-1.90324 0.36687,-3.92702 -0.37181,-5.50584 -0.73867,-1.57882 -2.03,-2.81125 -3.59797,-2.82264 -1.48047,-0.0104 -2.63608,1.1603 -3.5418,2.1794 -0.48192,0.54223 -0.54551,0.69465 -0.81914,1.08182 -0.27363,-0.38717 -0.33721,-0.53959 -0.81912,-1.08182 -0.90573,-1.0191 -2.06135,-2.19016 -3.54181,-2.1794 z m 0.0116,2.07144 c 0.4857,-0.003 1.50849,0.71876 2.28892,1.59686 0.78043,0.87812 1.34004,1.76557 1.34004,1.76557 a 0.89232694,1.0363935 0 0 0 0.0833,0.0158 0.89232694,1.0363935 0 0 0 0.11037,0.21142 0.89232694,1.0363935 0 0 0 0.95275,-0.018 0.89232694,1.0363935 0 0 0 0.10069,0.018 0.89232694,1.0363935 0 0 0 0.122,-0.17543 0.89232694,1.0363935 0 0 0 0.0717,-0.0517 c 0,0 0.56154,-0.88746 1.34197,-1.76557 0.78043,-0.8781 1.80128,-1.6004 2.28697,-1.59686 0.74143,0.006 1.53185,0.65246 2.04105,1.7408 0.50919,1.08836 0.67746,2.52207 0.26917,3.78977 -0.45681,1.41835 -2.28692,3.99607 -3.9872,6.02763 -1.3941,1.66574 -2.24957,2.52985 -2.67234,2.96884 -0.42317,-0.43944 -1.27866,-1.30362 -2.67233,-2.96884 -1.70028,-2.03156 -3.53039,-4.60928 -3.98719,-6.02763 -0.40829,-1.2677 -0.24004,-2.70141 0.26916,-3.78977 0.5092,-1.08834 1.29963,-1.73543 2.04104,-1.7408 z"
           id="path3192"
           transform="translate(-3.9765267,-2.7448155)" />
        <path
           id="path3194"
           style="display:inline;opacity:1;fill:#00000f;fill-opacity:1;stroke:none;stroke-width:0.0493168;stroke-linecap:round;stroke-linejoin:round;stroke-dasharray:none"
           d="m 134.2839,152.40271 8.57176,-0.0123 -2.62962,-1.95128 0.63541,-0.76229 3.63059,2.66385 0.0105,1.09808 -3.67891,2.70737 -0.62137,-0.77378 2.67702,-1.97743 h -8.58575 m -0.009,-0.99232 c 0,0 -0.0572,0.005 -0.12649,0.0369 -0.0485,0.0219 -0.10472,0.0573 -0.14797,0.10092 -0.0365,0.0368 -0.0721,0.0868 -0.0961,0.13794 -0.034,0.0724 -0.0492,0.14856 -0.0502,0.20332 -8.8e-4,0.0564 0.008,0.13482 0.0373,0.20894 0.0179,0.0459 0.0458,0.0902 0.0761,0.1259 0.0411,0.0483 0.0953,0.0938 0.1495,0.12176 0.0855,0.0442 0.16714,0.0566 0.16714,0.0566 m 5.90874,1.97742 c 0,0 -0.0415,0.0396 -0.0766,0.10725 -0.0244,0.0473 -0.0468,0.10979 -0.0539,0.17089 -0.005,0.0514 -0.003,0.11272 0.009,0.16781 0.0182,0.078 0.0532,0.14717 0.0864,0.19073 0.0341,0.0447 0.09,0.10072 0.15856,0.14106 0.0424,0.0249 0.0919,0.0425 0.13771,0.0519 0.0621,0.0126 0.1329,0.0148 0.19282,0.003 0.0945,-0.0182 0.16631,-0.059 0.16631,-0.059 m 3.6789,-2.70737 c 0,0 0.0743,-0.0566 0.0986,-0.0749 0.023,-0.0175 0.0973,-0.0641 0.14106,-0.10736 0.0368,-0.0364 0.0761,-0.0837 0.10073,-0.13466 0.0348,-0.0721 0.0535,-0.14668 0.0549,-0.20143 0.002,-0.0563 -0.003,-0.12769 -0.0308,-0.20211 -0.0174,-0.0461 -0.0481,-0.0988 -0.0765,-0.13607 -0.0516,-0.0675 -0.10482,-0.10083 -0.15419,-0.13672 -0.0614,-0.0446 -0.14414,-0.1048 -0.14414,-0.1048 m -3.6306,-2.66385 c 0,0 -0.0471,-0.0329 -0.12029,-0.0539 -0.0511,-0.0148 -0.11689,-0.0241 -0.17816,-0.0188 -0.0516,0.005 -0.11109,0.0195 -0.16254,0.0429 -0.0728,0.0332 -0.13373,0.0814 -0.16984,0.1225 -0.0371,0.0423 -0.0809,0.10815 -0.10688,0.18336 -0.016,0.0465 -0.0235,0.0984 -0.0235,0.14527 0,0.0634 0.0119,0.13313 0.0351,0.18958 0.0366,0.0892 0.0907,0.15132 0.0907,0.15132"
           transform="translate(-9.5018568e-6,6.0490309)" />
        <rect
           style="display:inline;opacity:1;fill:none;fill-opacity:1;stroke:#000000;stroke-width:1.8988;stroke-linecap:butt;stroke-linejoin:round;stroke-dasharray:none;stroke-dashoffset:0;stroke-opacity:1"
           id="rect3204"
           width="122.03234"
           height="139.59407"
           x="45.264675"
           y="66.840759" />
      </g>
      <g
         id="g3184"
         style="display:inline">
        <path
           id="path33031-9"
           style="display:inline;fill:#000000;stroke-width:0"
           d="m 103.24222,162.04979 a 2.1328538,2.1328538 0 0 1 -2.13285,2.13284 2.1328538,2.1328538 0 0 1 -2.132853,-2.13284 2.1328538,2.1328538 0 0 1 2.132853,-2.13286 2.1328538,2.1328538 0 0 1 2.13285,2.13286 z"
           transform="translate(-3.9765267,-2.7448155)" />
        <path
           id="path33047-8"
           style="color:#000000;display:inline;fill:#000000;stroke-linecap:round;stroke-linejoin:round"
           d="m 125.90194,177.08777 c -0.47746,0.007 -0.80497,0.27207 -1.0332,0.52929 -0.22857,0.25761 -0.38699,0.54957 -0.49609,0.85547 -0.73531,2.06161 -0.69384,5.12642 -0.5293,7.75977 0.16454,2.63334 0.49414,4.80468 0.49414,4.80468 a 0.72323234,0.72323234 0 0 0 0.60742,0.60743 c 0,0 0.44195,0.0655 0.97852,0.21093 0.53657,0.14541 1.16064,0.40596 1.38086,0.59375 0.31028,0.26461 0.62487,0.83229 0.94531,1.49219 0.32044,0.65991 0.64554,1.40443 1.24609,1.98828 0.5093,0.49515 1.19172,0.83938 1.77344,1.11133 0.58172,0.27195 1.06641,0.44922 1.06641,0.44922 a 0.72323234,0.72323234 0 0 0 0.96875,-0.68164 v -6.48242 c 0,-2.15942 -0.53937,-4.43941 -1.61719,-6.11524 -0.0183,-0.0319 -1.78989,-3.12516 -2.95898,-4.58984 -0.29167,-0.36542 -0.62615,-0.93488 -1.03321,-1.45313 -0.40671,-0.51781 -0.95921,-1.0914 -1.79101,-1.08007 z m 0.0215,1.44726 c 0.0894,-0.001 0.31817,0.12481 0.63281,0.52539 0.31464,0.40058 0.64488,0.96659 1.04102,1.46289 0.98615,1.23549 2.85351,4.43555 2.85351,4.43555 a 0.72323234,0.72323234 0 0 0 0.0176,0.0293 c 0.86635,1.34475 1.39062,3.42866 1.39062,5.33789 v 5.39257 c -0.51356,-0.24237 -1.109,-0.58845 -1.35351,-0.82617 -0.31789,-0.30905 -0.62986,-0.91228 -0.95508,-1.58203 -0.32522,-0.66975 -0.66398,-1.41317 -1.30859,-1.96289 -0.57893,-0.4937 -1.31601,-0.71777 -1.93946,-0.88672 -0.31856,-0.0863 -0.37537,-0.0846 -0.58398,-0.125 -0.0548,-0.37657 -0.28613,-1.89576 -0.42969,-4.19336 -0.16014,-2.56295 -0.11811,-5.6039 0.44531,-7.18359 0.0512,-0.14363 0.14485,-0.30172 0.2168,-0.38281 0.072,-0.0811 0.0928,-0.0427 -0.0273,-0.041 z m -6.42775,-1.44531 c -0.83177,-0.0113 -1.38428,0.56232 -1.79101,1.08008 -0.40708,0.51819 -0.73958,1.08777 -1.03125,1.45312 -1.16764,1.46262 -2.9342,4.54417 -2.95703,4.58399 -1.07999,1.67608 -1.6211,3.95784 -1.6211,6.11914 v 6.48242 a 0.72323234,0.72323234 0 0 0 0.96875,0.68164 c 0,0 0.48467,-0.17535 1.06641,-0.44727 0.58173,-0.27191 1.26412,-0.6182 1.77344,-1.11328 0.60059,-0.58378 0.92563,-1.32846 1.24609,-1.98828 0.32046,-0.65982 0.63696,-1.2276 0.94727,-1.49219 0.2202,-0.18776 0.84231,-0.4464 1.3789,-0.59179 0.5366,-0.14539 0.97852,-0.21289 0.97852,-0.21289 a 0.72323234,0.72323234 0 0 0 0.60742,-0.60547 c 0,0 0.32959,-2.17167 0.49414,-4.80469 0.16455,-2.63302 0.20801,-5.69837 -0.52734,-7.75977 -0.10912,-0.30588 -0.26752,-0.59788 -0.4961,-0.85546 -0.22823,-0.2572 -0.55773,-0.52187 -1.03515,-0.5293 z m -0.0195,1.44726 c -0.12007,-0.002 -0.0973,-0.0381 -0.0254,0.043 0.072,0.0811 0.16362,0.23726 0.21485,0.38086 0.56341,1.57943 0.60741,4.62098 0.44726,7.1836 -0.14343,2.29508 -0.37451,3.81028 -0.42969,4.18945 -0.20878,0.0404 -0.26613,0.0403 -0.58593,0.12695 -0.62346,0.16893 -1.36051,0.39503 -1.93946,0.88867 -0.64463,0.54967 -0.98335,1.29128 -1.30859,1.96094 -0.32524,0.66966 -0.63717,1.27302 -0.95508,1.58203 -0.24453,0.23769 -0.83994,0.58383 -1.35351,0.82617 v -5.39257 c 0,-1.90893 0.52426,-3.99139 1.39062,-5.33594 a 0.72323234,0.72323234 0 0 0 0.0176,-0.0293 c 0,0 1.86733,-3.20023 2.85351,-4.43554 0.39618,-0.49626 0.72638,-1.06237 1.04102,-1.4629 0.31464,-0.40052 0.54328,-0.52671 0.63281,-0.52539 z"
           transform="translate(-3.9765267,-2.7448155)" />
        <path
           id="path33049-8"
           style="display:inline;fill:#000000;stroke-width:0.0808789"
           d="m 62.064633,78.694356 v 93.404184 h 9.590354 v -38.99713 l 23.397437,-0.58178 22.710736,29.53466 -28.134932,35.5908 9.688154,0.0125 23.383218,-29.78501 23.13413,29.75993 9.68815,0.0121 -27.87622,-35.58704 28.24276,-35.60209 -9.68815,-0.0121 -23.44842,29.79923 -20.54825,-27.02737 c 0,0 2.90577,-1.01914 8.20316,-8.77785 3.21904,-4.71469 4.85723,-13.52592 4.83822,-17.786 -0.0206,-4.621641 -0.44638,-10.647182 -7.07928,-16.562233 -1.27723,-1.138989 -3.38007,-2.962028 -6.7374,-4.630086 -2.926853,-1.454179 -7.000679,-2.65379 -11.33698,-2.668631 z m 17.069626,8.448088 c 0.770252,-0.003 1.549164,-0.0021 2.310028,0.005 0.760863,0.0071 1.503528,0.02027 2.200523,0.04096 0.696995,0.02069 1.348536,0.0491 1.927182,0.08693 0.438264,0.02866 0.879494,0.05087 1.322403,0.07022 0.442911,0.01934 0.887347,0.03588 1.332435,0.0535 0.445089,0.01761 0.89098,0.03628 1.335779,0.05977 0.444799,0.02349 0.888721,0.05166 1.330762,0.08861 0.442042,0.03695 0.881827,0.08243 1.318643,0.140432 0.218408,0.029 0.436204,0.06128 0.652843,0.09697 0.216639,0.03568 0.432429,0.07496 0.646991,0.11828 0.214562,0.04332 0.427711,0.09062 0.639887,0.142522 0.212176,0.05191 0.423299,0.108251 0.632781,0.169689 0.209481,0.06144 0.417525,0.127862 0.624001,0.199782 0.206484,0.07192 0.411229,0.149448 0.614396,0.2328 0.35311,0.144868 0.705871,0.300154 1.055745,0.466017 0.349882,0.165864 0.696957,0.342094 1.039455,0.529129 0.342498,0.187036 0.680458,0.384689 1.011447,0.593075 0.165486,0.104194 0.329258,0.211424 0.491089,0.320988 0.161838,0.109565 0.321728,0.221495 0.479391,0.336453 0.15767,0.114959 0.31304,0.232796 0.46603,0.35317 0.15297,0.120375 0.30361,0.24324 0.45138,0.369053 0.14777,0.125813 0.29263,0.254497 0.43467,0.385771 0.14204,0.131274 0.2809,0.265314 0.4167,0.402071 0.1358,0.136757 0.26843,0.276108 0.39747,0.418371 0.12905,0.142263 0.2548,0.287299 0.37658,0.435089 0.12177,0.14779 0.23961,0.298467 0.35358,0.451808 0.11398,0.15334 0.2241,0.309612 0.32977,0.468525 0.11313,0.17014 0.2215,0.343059 0.32516,0.519098 0.10367,0.176038 0.20263,0.355217 0.29717,0.536652 0.0945,0.181435 0.18465,0.365368 0.27042,0.551698 0.0858,0.18633 0.16718,0.374768 0.2445,0.565491 0.0773,0.190722 0.15019,0.383833 0.21942,0.578447 0.0692,0.194614 0.13453,0.390893 0.19603,0.588896 0.0615,0.198003 0.11935,0.397618 0.17344,0.598509 0.0541,0.200891 0.10468,0.403173 0.15172,0.60645 0.0471,0.203276 0.0905,0.407554 0.13082,0.612714 0.0404,0.20516 0.0776,0.411203 0.11159,0.617743 0.0679,0.413083 0.12346,0.828223 0.16802,1.243833 0.0446,0.4156 0.0781,0.83139 0.10198,1.2455 0.0239,0.4141 0.0382,0.82645 0.0443,1.23505 0.008,0.52165 0.003,1.04727 -0.0142,1.57485 -0.009,0.26379 -0.0211,0.52837 -0.0368,0.79285 -0.0157,0.26449 -0.0349,0.52904 -0.0577,0.7937 -0.0228,0.26465 -0.0493,0.52939 -0.0794,0.79369 -0.0302,0.2643 -0.0641,0.52817 -0.10198,0.7916 -0.0378,0.26343 -0.0795,0.52624 -0.12538,0.78826 -0.0459,0.26203 -0.096,0.52315 -0.15005,0.78325 -0.0541,0.2601 -0.11248,0.51932 -0.17513,0.77697 -0.0626,0.25765 -0.12955,0.51394 -0.20103,0.76862 -0.0715,0.25468 -0.14717,0.50782 -0.22779,0.759 -0.0806,0.25118 -0.16618,0.50056 -0.2562,0.74772 -0.09,0.24716 -0.18448,0.49215 -0.2842,0.73476 -0.0997,0.24261 -0.20459,0.48259 -0.31431,0.72013 -0.10971,0.23754 -0.2244,0.47231 -0.34439,0.70426 -0.12,0.23194 -0.24518,0.46128 -0.37574,0.68711 -0.0983,0.17012 -0.20047,0.33814 -0.30636,0.50447 -0.10589,0.16633 -0.21586,0.33081 -0.32893,0.49318 -0.11306,0.16238 -0.22952,0.32283 -0.3494,0.48107 -0.11988,0.15823 -0.24314,0.31419 -0.36947,0.46811 -0.12634,0.15391 -0.25544,0.30572 -0.38786,0.45515 -0.13243,0.14942 -0.2681,0.2966 -0.40625,0.44136 -0.13815,0.14475 -0.27904,0.28724 -0.42255,0.42714 -0.14352,0.13991 -0.2895,0.27723 -0.43802,0.41211 -0.148522,0.13488 -0.299474,0.26696 -0.452643,0.39663 -0.15316,0.12968 -0.308569,0.25688 -0.466016,0.38118 -0.157447,0.12429 -0.317182,0.24571 -0.47856,0.36445 -0.16137,0.11874 -0.324486,0.23473 -0.489422,0.34774 -0.164929,0.113 -0.331321,0.22309 -0.499452,0.33018 -0.168123,0.1071 -0.338106,0.21121 -0.509068,0.31221 -0.170961,0.10101 -0.343152,0.19909 -0.516589,0.29382 -0.173437,0.0947 -0.347723,0.1863 -0.523278,0.2746 -0.196447,0.0988 -0.395223,0.19181 -0.595997,0.27919 -0.200782,0.0874 -0.40382,0.16893 -0.608541,0.24576 -0.204722,0.0768 -0.41114,0.14893 -0.619409,0.21608 -0.208269,0.0671 -0.418427,0.12931 -0.629855,0.18766 -0.211427,0.0584 -0.424436,0.11258 -0.638632,0.163 -0.214196,0.0504 -0.429581,0.0971 -0.646156,0.14044 -0.433149,0.0867 -0.87038,0.16063 -1.310701,0.22444 -0.440321,0.0638 -0.883467,0.11765 -1.327837,0.16551 -0.444371,0.0478 -0.890063,0.0894 -1.335361,0.12831 -0.890595,0.0778 -1.780104,0.14498 -2.655675,0.22903 -0.291364,0.028 -0.600924,0.0524 -0.925766,0.074 -0.324841,0.0216 -0.665035,0.0402 -1.016461,0.056 -0.702854,0.0317 -1.451906,0.0525 -2.21975,0.0648 -0.767844,0.0123 -1.554477,0.0163 -2.332179,0.0142 -0.777701,-0.002 -1.546254,-0.0102 -2.278681,-0.0217 -1.464854,-0.0231 -2.784379,-0.0602 -3.737336,-0.0915 -0.952959,-0.0313 -1.539322,-0.0568 -1.539322,-0.0568 V 87.275353 c 0,0 0.580359,-0.01898 1.523439,-0.04263 0.94308,-0.02365 2.248563,-0.05214 3.698886,-0.07105 0.725161,-0.0095 1.486694,-0.01627 2.256947,-0.01922 z"
           transform="translate(-3.9765267,-2.7448155)" />
        <path
           style="color:#000000;display:inline;fill:#000000;stroke-width:1.06852;stroke-linecap:round;stroke-linejoin:round"
           d="m 118.31979,128.55508 c -1.56798,0.0115 -2.85929,1.24382 -3.59797,2.82264 -0.73868,1.57882 -0.98478,3.6026 -0.3718,5.50584 0.70676,2.19445 2.62425,4.6469 4.3803,6.7451 1.75605,2.09821 3.36171,3.73579 3.36171,3.73579 a 0.89232694,1.0363935 0 0 0 0.58869,-0.045 0.89232694,1.0363935 0 0 0 0.58869,0.045 c 0,0 1.60761,-1.63758 3.36366,-3.73579 1.75605,-2.0982 3.67159,-4.55065 4.37837,-6.7451 0.61298,-1.90324 0.36687,-3.92702 -0.37181,-5.50584 -0.73867,-1.57882 -2.03,-2.81125 -3.59797,-2.82264 -1.48047,-0.0104 -2.63608,1.1603 -3.5418,2.1794 -0.48192,0.54223 -0.54551,0.69465 -0.81914,1.08182 -0.27363,-0.38717 -0.33721,-0.53959 -0.81912,-1.08182 -0.90573,-1.0191 -2.06135,-2.19016 -3.54181,-2.1794 z m 0.0116,2.07144 c 0.4857,-0.003 1.50849,0.71876 2.28892,1.59686 0.78043,0.87812 1.34004,1.76557 1.34004,1.76557 a 0.89232694,1.0363935 0 0 0 0.0833,0.0158 0.89232694,1.0363935 0 0 0 0.11037,0.21142 0.89232694,1.0363935 0 0 0 0.95275,-0.018 0.89232694,1.0363935 0 0 0 0.10069,0.018 0.89232694,1.0363935 0 0 0 0.122,-0.17543 0.89232694,1.0363935 0 0 0 0.0717,-0.0517 c 0,0 0.56154,-0.88746 1.34197,-1.76557 0.78043,-0.8781 1.80128,-1.6004 2.28697,-1.59686 0.74143,0.006 1.53185,0.65246 2.04105,1.7408 0.50919,1.08836 0.67746,2.52207 0.26917,3.78977 -0.45681,1.41835 -2.28692,3.99607 -3.9872,6.02763 -1.3941,1.66574 -2.24957,2.52985 -2.67234,2.96884 -0.42317,-0.43944 -1.27866,-1.30362 -2.67233,-2.96884 -1.70028,-2.03156 -3.53039,-4.60928 -3.98719,-6.02763 -0.40829,-1.2677 -0.24004,-2.70141 0.26916,-3.78977 0.5092,-1.08834 1.29963,-1.73543 2.04104,-1.7408 z"
           id="path33051-1"
           transform="translate(-3.9765267,-2.7448155)" />
        <path
           id="path3159"
           style="display:inline;opacity:1;fill:#00000f;fill-opacity:1;stroke:none;stroke-width:0.0493168;stroke-linecap:round;stroke-linejoin:round;stroke-dasharray:none"
           d="m 134.2839,152.40271 8.57176,-0.0123 -2.62962,-1.95128 0.63541,-0.76229 3.63059,2.66385 0.0105,1.09808 -3.67891,2.70737 -0.62137,-0.77378 2.67702,-1.97743 h -8.58575 m -0.009,-0.99232 c 0,0 -0.0572,0.005 -0.12649,0.0369 -0.0485,0.0219 -0.10472,0.0573 -0.14797,0.10092 -0.0365,0.0368 -0.0721,0.0868 -0.0961,0.13794 -0.034,0.0724 -0.0492,0.14856 -0.0502,0.20332 -8.8e-4,0.0564 0.008,0.13482 0.0373,0.20894 0.0179,0.0459 0.0458,0.0902 0.0761,0.1259 0.0411,0.0483 0.0953,0.0938 0.1495,0.12176 0.0855,0.0442 0.16714,0.0566 0.16714,0.0566 m 5.90874,1.97742 c 0,0 -0.0415,0.0396 -0.0766,0.10725 -0.0244,0.0473 -0.0468,0.10979 -0.0539,0.17089 -0.005,0.0514 -0.003,0.11272 0.009,0.16781 0.0182,0.078 0.0532,0.14717 0.0864,0.19073 0.0341,0.0447 0.09,0.10072 0.15856,0.14106 0.0424,0.0249 0.0919,0.0425 0.13771,0.0519 0.0621,0.0126 0.1329,0.0148 0.19282,0.003 0.0945,-0.0182 0.16631,-0.059 0.16631,-0.059 m 3.6789,-2.70737 c 0,0 0.0743,-0.0566 0.0986,-0.0749 0.023,-0.0175 0.0973,-0.0641 0.14106,-0.10736 0.0368,-0.0364 0.0761,-0.0837 0.10073,-0.13466 0.0348,-0.0721 0.0535,-0.14668 0.0549,-0.20143 0.002,-0.0563 -0.003,-0.12769 -0.0308,-0.20211 -0.0174,-0.0461 -0.0481,-0.0988 -0.0765,-0.13607 -0.0516,-0.0675 -0.10482,-0.10083 -0.15419,-0.13672 -0.0614,-0.0446 -0.14414,-0.1048 -0.14414,-0.1048 m -3.6306,-2.66385 c 0,0 -0.0471,-0.0329 -0.12029,-0.0539 -0.0511,-0.0148 -0.11689,-0.0241 -0.17816,-0.0188 -0.0516,0.005 -0.11109,0.0195 -0.16254,0.0429 -0.0728,0.0332 -0.13373,0.0814 -0.16984,0.1225 -0.0371,0.0423 -0.0809,0.10815 -0.10688,0.18336 -0.016,0.0465 -0.0235,0.0984 -0.0235,0.14527 0,0.0634 0.0119,0.13313 0.0351,0.18958 0.0366,0.0892 0.0907,0.15132 0.0907,0.15132"
           transform="translate(-9.5018568e-6,6.0490309)" />
        <text
           xml:space="preserve"
           style="font-style:normal;font-variant:normal;font-weight:normal;font-stretch:normal;font-size:3.52778px;font-family:Arial;-inkscape-font-specification:'Arial, Normal';font-variant-ligatures:normal;font-variant-caps:normal;font-variant-numeric:normal;font-variant-east-asian:normal;text-align:center;text-anchor:middle;display:inline;opacity:0.3;fill:#000000;fill-opacity:0.75;stroke:none;stroke-width:0.2;stroke-linecap:butt;stroke-linejoin:round;stroke-dasharray:none;stroke-dashoffset:0;stroke-opacity:1"
           x="61.933167"
           y="202.38928"
           id="text53487-2"><tspan
             id="tspan55314-7"
             x="60"
             y="203"
             style="font-size:3px;opacity:0.5">Tyee Fellows MD</tspan></text>
        <text
           xml:space="preserve"
           style="font-style:normal;font-variant:normal;font-weight:normal;font-stretch:normal;font-size:6px;font-family:Arial;-inkscape-font-specification:'Arial, Normal';font-variant-ligatures:normal;font-variant-caps:normal;font-variant-numeric:normal;font-variant-east-asian:normal;text-align:center;text-anchor:middle;display:inline;opacity:1;fill:#000000;fill-opacity:1;stroke:none;stroke-width:0.2;stroke-linecap:butt;stroke-linejoin:round;stroke-dasharray:none;stroke-dashoffset:0;stroke-opacity:1"
           x="140"
           y="115"
           id="m-5T-info"
           transform="translate(-9.0226901e-6,1.1001179)"><tspan
             id="tspan1140"
             x="140"
             y="115" /></text>
        <rect
           style="display:inline;opacity:1;fill:none;fill-opacity:1;stroke:#000000;stroke-width:1.8988;stroke-linecap:butt;stroke-linejoin:round;stroke-dasharray:none;stroke-dashoffset:0;stroke-opacity:1"
           id="rect56042"
           width="122.03234"
           height="139.59407"
           x="42.272408"
           y="65.592339"
           transform="translate(2.769752,1.1001187)" />
      </g>
    </g>
    <g
       id="g11031"
       transform="matrix(1.4379792,0,0,1.4346892,-17.69828,-16.933022)">
      <text
         xml:space="preserve"
         style="font-style:normal;font-variant:normal;font-weight:normal;font-stretch:normal;font-size:19.6544px;font-family:Arial;-inkscape-font-specification:'Arial, Normal';font-variant-ligatures:normal;font-variant-caps:normal;font-variant-numeric:normal;font-variant-east-asian:normal;opacity:0.4;fill:#ffffff;stroke:#000000;stroke-width:0.721677;stroke-linecap:round;stroke-linejoin:round;stroke-dasharray:none;filter:url(#filter11021)"
         x="49.763321"
         y="54.683796"
         id="text10550"><tspan
           id="tspan10548"
           style="fill:#a02c2c;fill-opacity:1;stroke-width:0.721677;stroke-linejoin:round;stroke-dasharray:none"
           x="49.763321"
           y="54.683796">5T's of ACLS</tspan></text>
      <text
         xml:space="preserve"
         style="font-style:normal;font-variant:normal;font-weight:normal;font-stretch:normal;font-size:19.6544px;font-family:Arial;-inkscape-font-specification:'Arial, Normal';font-variant-ligatures:normal;font-variant-caps:normal;font-variant-numeric:normal;font-variant-east-asian:normal;fill:#a02c2c;fill-opacity:1;stroke:#000000;stroke-width:0.721677;stroke-linecap:round;stroke-linejoin:round;stroke-dasharray:none"
         x="48.805092"
         y="53.625462"
         id="text11019"><tspan
           id="tspan11017"
           style="fill:#a02c2c;fill-opacity:1;stroke-width:0.721677;stroke-linejoin:round;stroke-dasharray:none"
           x="48.805092"
           y="53.625462">5T's of ACLS</tspan></text>
    </g>
  </g>
</svg>
